<mxfile host="app.diagrams.net" agent="Mozilla/5.0 (X11; Linux x86_64) AppleWebKit/537.36 (KHTML, like Gecko) Chrome/133.0.0.0 Safari/537.36 Edg/133.0.0.0" version="26.0.16">
  <diagram name="Page-1" id="jpog3j6YvMqYN9L6i7-m">
    <mxGraphModel dx="1042" dy="665" grid="1" gridSize="10" guides="1" tooltips="1" connect="1" arrows="1" fold="1" page="1" pageScale="1" pageWidth="850" pageHeight="1100" math="0" shadow="0">
      <root>
        <mxCell id="0" />
        <mxCell id="1" parent="0" />
        <mxCell id="2" value="User" style="shape=umlActor;verticalLabelPosition=bottom;verticalAlign=top;html=1;fillColor=#023d6b;strokeColor=#023d6b;fontColor=#ffffff;" parent="1" vertex="1">
          <mxGeometry x="60" y="128" width="40" height="80" as="geometry" />
        </mxCell>
        <mxCell id="4" style="entryX=0;entryY=0.5;entryDx=0;entryDy=0;fillColor=#023d6b;strokeColor=#023d6b;" parent="1" source="2" target="xXst1sIsij-wTYxNnf8g-13" edge="1">
          <mxGeometry width="50" height="50" relative="1" as="geometry">
            <mxPoint x="100" y="180" as="sourcePoint" />
            <mxPoint x="130" y="210" as="targetPoint" />
            <Array as="points">
              <mxPoint x="130" y="169" />
            </Array>
          </mxGeometry>
        </mxCell>
        <mxCell id="6" style="exitX=1;exitY=0.5;exitDx=0;exitDy=0;fillColor=#023d6b;strokeColor=#023d6b;" parent="1" source="xXst1sIsij-wTYxNnf8g-13" edge="1">
          <mxGeometry width="50" height="50" relative="1" as="geometry">
            <mxPoint x="280" y="170" as="sourcePoint" />
            <mxPoint x="340" y="168.83333333333337" as="targetPoint" />
          </mxGeometry>
        </mxCell>
        <mxCell id="7" value="Call Function" style="rounded=1;whiteSpace=wrap;html=1;fillColor=#023d6b;strokeColor=#023d6b;fontColor=#ffffff;" parent="1" vertex="1">
          <mxGeometry x="540" y="140" width="120" height="60" as="geometry" />
        </mxCell>
        <mxCell id="8" style="fillColor=#023d6b;strokeColor=#023d6b;" parent="1" target="7" edge="1">
          <mxGeometry width="50" height="50" relative="1" as="geometry">
            <mxPoint x="480" y="170" as="sourcePoint" />
            <mxPoint x="530" y="120" as="targetPoint" />
          </mxGeometry>
        </mxCell>
        <mxCell id="10" style="fillColor=#023d6b;strokeColor=#023d6b;" parent="1" source="7" edge="1">
          <mxGeometry width="50" height="50" relative="1" as="geometry">
            <mxPoint x="660" y="170" as="sourcePoint" />
            <mxPoint x="700" y="170" as="targetPoint" />
          </mxGeometry>
        </mxCell>
        <mxCell id="12" style="exitX=1;exitY=0.5;exitDx=0;exitDy=0;exitPerimeter=0;fillColor=#023d6b;strokeColor=#023d6b;" parent="1" source="xXst1sIsij-wTYxNnf8g-17" edge="1">
          <mxGeometry width="50" height="50" relative="1" as="geometry">
            <mxPoint x="820" y="170" as="sourcePoint" />
            <mxPoint x="810" y="168.79999999999995" as="targetPoint" />
          </mxGeometry>
        </mxCell>
        <mxCell id="xXst1sIsij-wTYxNnf8g-13" value="Create Contract" style="swimlane;whiteSpace=wrap;html=1;fillColor=#023d6b;strokeColor=#023d6b;fontColor=#ffffff;" parent="1" vertex="1">
          <mxGeometry x="160" y="108" width="130" height="120" as="geometry" />
        </mxCell>
        <mxCell id="xXst1sIsij-wTYxNnf8g-15" value="&lt;font style=&quot;font-size: 24px;&quot;&gt;{&lt;/font&gt;&lt;div&gt;&lt;font style=&quot;font-size: 24px;&quot;&gt;&amp;nbsp; &amp;nbsp; &amp;nbsp; }&lt;/font&gt;&lt;/div&gt;" style="text;html=1;align=center;verticalAlign=middle;resizable=0;points=[];autosize=1;strokeColor=#023d6b;fillColor=#023d6b;fontColor=#ffffff;" parent="xXst1sIsij-wTYxNnf8g-13" vertex="1">
          <mxGeometry x="20" y="32" width="70" height="70" as="geometry" />
        </mxCell>
        <mxCell id="xXst1sIsij-wTYxNnf8g-16" value="Deploy to Blockchain" style="ellipse;shape=cloud;whiteSpace=wrap;html=1;fillColor=#023d6b;strokeColor=#023d6b;fontColor=#ffffff;" parent="1" vertex="1">
          <mxGeometry x="320" y="108" width="190" height="110" as="geometry" />
        </mxCell>
        <mxCell id="xXst1sIsij-wTYxNnf8g-17" value="Get Logs" style="shape=cylinder3;whiteSpace=wrap;html=1;boundedLbl=1;backgroundOutline=1;size=15;fillColor=#023d6b;strokeColor=#023d6b;fontColor=#ffffff;" parent="1" vertex="1">
          <mxGeometry x="710" y="128" width="60" height="80" as="geometry" />
        </mxCell>
        <mxCell id="xXst1sIsij-wTYxNnf8g-18" value="&lt;span style=&quot;text-wrap-mode: wrap;&quot;&gt;Visualize Results&lt;/span&gt;" style="verticalLabelPosition=bottom;shadow=0;dashed=0;align=center;html=1;verticalAlign=top;strokeWidth=1;shape=mxgraph.mockup.graphics.plotChart;strokeColor2=#aaaaaa;strokeColor3=#666666;fillColor2=#99aaff,#0022ff,#008cff;strokeColor=#023D6B;" parent="1" vertex="1">
          <mxGeometry x="820" y="133" width="130" height="70" as="geometry" />
        </mxCell>
      </root>
    </mxGraphModel>
  </diagram>
</mxfile>
